<svg width="26" height="26" viewBox="0 0 26 26" fill="none" xmlns="http://www.w3.org/2000/svg">
<rect width="26" height="26" fill="#E5E5E5"/>
<g id="HEADER_FOR_AUTHORIZED_USER">
<rect id="back__COLOR:primary-header" x="-1181" y="-24" width="1280" height="74" fill="#073042"/>
<g id="profile">
<g id="profile_2">
<g id="back__COLOR:primary" filter="url(#filter0_d_1_8436)">
<rect x="-71" y="-3" width="100" height="32" rx="16" fill="#073042"/>
</g>
<rect id="back__COLOR:special-1" width="26" height="26" rx="13" fill="#0F4157"/>
<path id="icon__COLOR:icon-main" fill-rule="evenodd" clip-rule="evenodd" d="M14.4301 14.9678C15.7919 14.4057 16.7503 13.0648 16.7503 11.5C16.7503 9.42893 15.0714 7.75 13.0003 7.75C10.9293 7.75 9.25035 9.42893 9.25035 11.5C9.25035 13.0647 10.2087 14.4056 11.5705 14.9677C10.1758 15.1999 8.89287 15.7659 7.80859 16.5806L9.19015 18.4194C10.2514 17.6221 11.569 17.15 13.0001 17.15C14.4312 17.15 15.7488 17.6221 16.8101 18.4194L18.1916 16.5806C17.1074 15.766 15.8246 15.2 14.4301 14.9678Z" fill="white"/>
</g>
</g>
</g>
<defs>
<filter id="filter0_d_1_8436" x="-85" y="-14" width="128" height="60" filterUnits="userSpaceOnUse" color-interpolation-filters="sRGB">
<feFlood flood-opacity="0" result="BackgroundImageFix"/>
<feColorMatrix in="SourceAlpha" type="matrix" values="0 0 0 0 0 0 0 0 0 0 0 0 0 0 0 0 0 0 127 0" result="hardAlpha"/>
<feOffset dy="3"/>
<feGaussianBlur stdDeviation="7"/>
<feColorMatrix type="matrix" values="0 0 0 0 0 0 0 0 0 0 0 0 0 0 0 0 0 0 0.08 0"/>
<feBlend mode="normal" in2="BackgroundImageFix" result="effect1_dropShadow_1_8436"/>
<feBlend mode="normal" in="SourceGraphic" in2="effect1_dropShadow_1_8436" result="shape"/>
</filter>
</defs>
</svg>
